<svg xmlns="http://www.w3.org/2000/svg" xmlns:xlink="http://www.w3.org/1999/xlink"><symbol id="calendar"><g fill="none">
    <path d="M4.75 8.75a2 2 0 0 1 2-2h10.5a2 2 0 0 1 2 2v8.5a2 2 0 0 1-2 2H6.75a2 2 0 0 1-2-2v-8.5ZM8 4.75v3.5M16 4.75v3.5M7.75 10.75h8.5" stroke="#111" stroke-width="1.5" stroke-linecap="round" stroke-linejoin="round"/>
</g></symbol><symbol id="check"><g fill="none">
    <path d="M1 5.366 2.849 7.9c.58.793 1.769.778 2.328-.03L9.923 1" stroke="#111" stroke-width="1.5" stroke-linecap="round" stroke-linejoin="round"/>
</g></symbol><symbol id="close"><g fill="none">
    <path d="m17.25 6.75-10.5 10.5M6.75 6.75l10.5 10.5" stroke="#111" stroke-width="1.5" stroke-linecap="round" stroke-linejoin="round"/>
</g></symbol><symbol id="grid"><g fill="none">
    <path d="M4.75 5.75a1 1 0 0 1 1-1h3.5a1 1 0 0 1 1 1v3.5a1 1 0 0 1-1 1h-3.5a1 1 0 0 1-1-1v-3.5ZM4.75 14.75a1 1 0 0 1 1-1h3.5a1 1 0 0 1 1 1v3.5a1 1 0 0 1-1 1h-3.5a1 1 0 0 1-1-1v-3.5ZM13.75 5.75a1 1 0 0 1 1-1h3.5a1 1 0 0 1 1 1v3.5a1 1 0 0 1-1 1h-3.5a1 1 0 0 1-1-1v-3.5ZM13.75 14.75a1 1 0 0 1 1-1h3.5a1 1 0 0 1 1 1v3.5a1 1 0 0 1-1 1h-3.5a1 1 0 0 1-1-1v-3.5Z" stroke="#111" stroke-width="1.5" stroke-linecap="round" stroke-linejoin="round"/>
</g></symbol><symbol id="heart"><g fill="none">
    <path clip-rule="evenodd" d="M7.995 2.233C6.545.61 4.128.173 2.312 1.66.496 3.146.24 5.63 1.667 7.39l6.328 5.86 6.328-5.86c1.427-1.759 1.202-4.26-.645-5.73C11.83.189 9.445.61 7.995 2.233Z" stroke="#111" stroke-width="1.5" stroke-linecap="round" stroke-linejoin="round"/>
</g></symbol><symbol id="heartblue"><g fill="none">
    <path d="M7.995 2.233C6.545.61 4.128.173 2.312 1.66.496 3.146.24 5.63 1.667 7.39l6.328 5.86 6.328-5.86c1.427-1.759 1.202-4.26-.645-5.73C11.83.189 9.445.61 7.995 2.233Z" fill="#0154BB" stroke="#0154BB" stroke-width="1.5" stroke-linecap="round" stroke-linejoin="round"/>
</g></symbol><symbol id="heart_logo"><g fill="none">
    <path clip-rule="evenodd" d="M11.995 7.233c-1.45-1.623-3.867-2.06-5.683-.573-1.816 1.486-2.072 3.971-.645 5.73l6.328 5.86 6.329-5.86c1.426-1.759 1.201-4.26-.646-5.73-1.848-1.471-4.233-1.05-5.683.573Z" stroke="#111" stroke-width="1.5" stroke-linecap="round" stroke-linejoin="round"/>
</g></symbol><symbol id="log-in"><g fill="none">
    <path d="M12 11.25a3.25 3.25 0 1 0 0-6.5 3.25 3.25 0 0 0 0 6.5ZM6.848 19.25h10.305c1.142 0 2.021-.982 1.488-1.992-.784-1.485-2.573-3.258-6.64-3.258-4.069 0-5.857 1.773-6.642 3.258-.533 1.01.347 1.992 1.489 1.992Z" stroke="#111" stroke-width="1.5" stroke-linecap="round" stroke-linejoin="round"/>
</g></symbol><symbol id="shopping_cart"><g fill="none">
    <path d="m7.75 7.75-.75-3H4.75m3 3h11.5l-1.637 6.958a2 2 0 0 1-1.947 1.542h-4.127a2 2 0 0 1-1.933-1.488L7.75 7.75Z" stroke="#000" stroke-width="1.5" stroke-linecap="round" stroke-linejoin="round"/>
    <path d="M10 20a1 1 0 1 0 0-2 1 1 0 0 0 0 2ZM17 20a1 1 0 1 0 0-2 1 1 0 0 0 0 2Z" fill="#000"/>
</g></symbol><symbol id="slider"><g fill="none">
    <path opacity=".5" fill="#111" d="M0 7h263v1H0z"/>
    <path fill="#0154BB" d="M33 6h192v3H33z"/>
    <circle cx="33.5" cy="7.5" r="7.5" fill="#0154BB"/>
    <circle cx="224.5" cy="7.5" r="7.5" fill="#0154BB"/>
</g></symbol><symbol id="toptext"><g fill="none">
    <path fill-rule="evenodd" clip-rule="evenodd" d="M1615 0H245v1.08h20.881V598h11.52V1.08H1615V0ZM1.98 126H.54L23.04.18H27L54.9 126H43.2l-8.82-39.24H9L1.98 126ZM20.7 21.42h-.36l-1.26 7.02-9.9 57.24h24.84L22.14 28.44l-1.44-7.02ZM115.786 126V.18h11.52v62.46h29.88V.18h11.52V126h-11.52V63.72h-29.88V126h-11.52ZM197.208.18V126h38.7v-1.08h-27.18V62.28h23.4V61.2h-23.4V1.26h27.18V.18h-38.7ZM638.137 577.4c-.8-4.666-.733-9.8.2-15.4l12.2-69c.934-5.466 2.6-10.4 5-14.8 2.534-4.533 5.534-8.4 9-11.6a39.39 39.39 0 0 1 12.2-7.4c4.534-1.866 9.334-2.8 14.4-2.8 4.934 0 9.334.934 13.2 2.8 3.867 1.734 7 4.2 9.4 7.4 2.4 3.2 4 7.067 4.8 11.6.934 4.4.867 9.334-.2 14.8l-12.2 69c-.8 5.6-2.466 10.734-5 15.4-2.533 4.534-5.6 8.534-9.2 12-3.466 3.334-7.466 5.867-12 7.6-4.4 1.734-9.2 2.6-14.4 2.6-5.066 0-9.533-.866-13.4-2.6-3.733-1.866-6.8-4.4-9.2-7.6-2.4-3.333-4-7.333-4.8-12Zm35.4-106.4c-1.2 2.934-2.133 6.267-2.8 10l-16.6 94.2c-.666 3.734-.933 7.134-.8 10.2.267 2.934.867 5.4 1.8 7.4.934 1.867 2.267 3.267 4 4.2 1.867.934 4.134 1.4 6.8 1.4 2.667 0 5-.466 7-1.4 2.134-.933 4.067-2.4 5.8-4.4 1.734-2 3.134-4.4 4.2-7.2 1.2-2.933 2.134-6.333 2.8-10.2l16.8-94.2c.667-3.866.934-7.266.8-10.2-.133-2.933-.733-5.333-1.8-7.2-.933-2-2.333-3.466-4.2-4.4-1.733-1.066-3.866-1.6-6.4-1.6-2.666 0-5.066.534-7.2 1.6-2.133.934-4.066 2.4-5.8 4.4-1.6 2-3.066 4.467-4.4 7.4ZM564.8 598h-18l24.8-139.8H638L613.2 598H595l24.6-138.6h-30.2L564.8 598Zm222.512 0-12.4-58.4c-.666-3.2-1.533-5.8-2.6-7.8-.933-2.133-2.066-3.8-3.4-5-1.333-1.2-2.866-2-4.6-2.4-1.733-.4-3.6-.6-5.6-.6h-2.016l45.016-65.6h-2l-44.771 65.6h-6.572l11.543-65.6h-18l-24.8 139.8h18.2l12.846-73h.754c2 .134 3.534.867 4.6 2.2 1.067 1.334 1.934 3.867 2.6 7.6l12.4 63.2h18.8Zm8.886 0h-1.6l51.6-139.8h5.2l9.2 139.8h-18.6l-3-43.6h-26.8l-16 43.6Zm39.4-106.8h-.4l-3 8-19.4 54h26.2l-2.8-54-.6-8Zm61.728 108.4c6.134 0 11.867-.8 17.2-2.4 5.467-1.6 10.267-3.866 14.4-6.8a40.08 40.08 0 0 0 10.4-10.8c2.8-4.4 4.667-9.333 5.6-14.8l1.6-9c.8-4.533.867-8.533.2-12-.666-3.466-2-6.4-4-8.8-2-2.533-4.6-4.533-7.8-6-3.066-1.466-6.733-2.333-11-2.6l-4.2-.4.2-.8 4.4-.2c4-.266 7.667-1.066 11-2.4 3.467-1.466 6.467-3.333 9-5.6 2.667-2.4 4.867-5.333 6.6-8.8 1.867-3.6 3.2-7.6 4-12l1.2-7.2c.934-5.066.867-9.6-.2-13.6-1.066-4-3-7.4-5.8-10.2-2.8-2.8-6.333-4.933-10.6-6.4-4.266-1.6-9.133-2.4-14.6-2.4-6.266 0-12.333 1-18.2 3-5.866 2-10.933 4.867-15.2 8.6l.8.8a41.975 41.975 0 0 1 12.4-7.4c4.667-1.733 9.134-2.6 13.4-2.6 7.6 0 13.267 2.667 17 8 3.734 5.2 4.8 12.534 3.2 22l-1.6 8.4c-1.6 9.2-4.733 16.134-9.4 20.8-4.666 4.667-10.4 7-17.2 7h-4.6l-.2 1.2h4.6c3.734 0 6.934.6 9.6 1.8 2.8 1.2 5 3 6.6 5.4 1.734 2.267 2.8 5.134 3.2 8.6.4 3.467.267 7.467-.4 12l-2.2 11.6c-1.733 10.134-5.866 18-12.4 23.6-6.4 5.467-14.066 8.2-23 8.2-4.133 0-8.266-.6-12.4-1.8-4-1.2-7.933-3-11.8-5.4l-.8 1c4.134 2.8 8.867 4.934 14.2 6.4 5.334 1.334 10.934 2 16.8 2Zm47.896-1.6h-1.6l51.6-139.8h5.198l9.2 139.8h-18.598l-3-43.6h-26.8l-16 43.6Zm39.4-106.8h-.4l-3 8-19.4 54h26.2l-2.8-54-.6-8Zm25.808 104.6c2 1.334 4.13 2.267 6.4 2.8 2.26.667 4.66 1 7.2 1 3.73 0 7.33-.866 10.8-2.6 3.46-1.733 6.66-4.4 9.6-8 2.93-3.733 5.6-8.4 8-14 2.53-5.733 4.6-12.533 6.2-20.4l20.4-95.2h29.4l-24.4 138.6h18l24.6-139.8h-65.4l-23 109.2c-1.2 6-2.47 10.934-3.8 14.8-1.34 3.734-2.74 6.8-4.2 9.2-1.34 2.267-2.8 3.867-4.4 4.8-1.6.934-3.27 1.4-5 1.4-1.74 0-3.34-.2-4.8-.6-1.6-.533-3.2-1.333-4.8-2.4l-.8 1.2ZM1127 577.4c-.8-4.666-.73-9.8.2-15.4l12.2-69c.94-5.466 2.6-10.4 5-14.8 2.54-4.533 5.54-8.4 9-11.6 3.6-3.2 7.67-5.666 12.2-7.4 4.54-1.866 9.34-2.8 14.4-2.8 4.94 0 9.34.934 13.2 2.8 3.87 1.734 7 4.2 9.4 7.4 2.4 3.2 4 7.067 4.8 11.6.94 4.4.87 9.334-.2 14.8l-12.2 69c-.8 5.6-2.46 10.734-5 15.4-2.53 4.534-5.6 8.534-9.2 12-3.46 3.334-7.46 5.867-12 7.6-4.4 1.734-9.2 2.6-14.4 2.6-5.06 0-9.53-.866-13.4-2.6-3.73-1.866-6.8-4.4-9.2-7.6-2.4-3.333-4-7.333-4.8-12Zm35.4-106.4c-1.2 2.934-2.13 6.267-2.8 10l-16.6 94.2c-.66 3.734-.93 7.134-.8 10.2.27 2.934.87 5.4 1.8 7.4.94 1.867 2.27 3.267 4 4.2 1.87.934 4.14 1.4 6.8 1.4 2.67 0 5-.466 7-1.4 2.14-.933 4.07-2.4 5.8-4.4 1.74-2 3.14-4.4 4.2-7.2 1.2-2.933 2.14-6.333 2.8-10.2l16.8-94.2c.67-3.866.94-7.266.8-10.2-.13-2.933-.73-5.333-1.8-7.2-.93-2-2.33-3.466-4.2-4.4-1.73-1.066-3.86-1.6-6.4-1.6-2.66 0-5.06.534-7.2 1.6-2.13.934-4.06 2.4-5.8 4.4-1.6 2-3.06 4.467-4.4 7.4Zm50.35 90.8c-.93 5.734-1.07 10.934-.4 15.6.8 4.667 2.4 8.667 4.8 12 2.4 3.334 5.53 5.867 9.4 7.6 3.87 1.734 8.33 2.6 13.4 2.6 7.33 0 13.93-1.666 19.8-5 6-3.466 10.87-8.333 14.6-14.6l-1.2-.6a31.098 31.098 0 0 1-5.6 7.6 33.363 33.363 0 0 1-7.2 5.8 38.324 38.324 0 0 1-8.6 3.8c-3.07.934-6.13 1.4-9.2 1.4-6.13 0-10.33-1.933-12.6-5.8-2.27-3.866-2.67-10.066-1.2-18.6l16.4-92c1.33-7.6 3.93-13.4 7.8-17.4 4-4 9.07-6 15.2-6 4.27 0 8.07.867 11.4 2.6 3.47 1.734 6.4 4.267 8.8 7.6l1-.8c-2.8-3.733-6.2-6.533-10.2-8.4-4-1.866-8.6-2.8-13.8-2.8-5.2 0-10.07.934-14.6 2.8-4.4 1.734-8.4 4.2-12 7.4-3.47 3.2-6.4 7.067-8.8 11.6-2.4 4.534-4.07 9.534-5 15l-12.2 68.6Zm93.42-103.6h18l-10.8 61.2h13c4.67 0 8.8.867 12.4 2.6 3.73 1.6 6.8 3.934 9.2 7 2.4 2.934 4.07 6.467 5 10.6 1.07 4 1.13 8.4.2 13.2l-2.2 12.6c-.8 4.534-2.33 8.8-4.6 12.8-2.27 3.867-5 7.267-8.2 10.2a38.535 38.535 0 0 1-10.8 7c-3.87 1.734-7.87 2.6-12 2.6h-34l24.8-139.8Zm22.8 124.8c1.2-3.2 2.2-7.133 3-11.8l4.2-24.4c1.6-8.666 1.33-15.2-.8-19.6-2-4.4-5.47-6.6-10.4-6.6h-11.8l-13.6 76.2h12.8c2.67 0 5-.466 7-1.4 2-.933 3.8-2.4 5.4-4.4 1.6-2.133 3-4.8 4.2-8Z" fill="#111"/>
</g></symbol><symbol id="truck"><g fill="none">
    <path d="M15.25 15.25H4.75V4.75h10.5v10.5ZM9.25 17.5a1.75 1.75 0 1 1-3.5 0 1.75 1.75 0 0 1 3.5 0ZM18.25 17.5a1.75 1.75 0 1 1-3.5 0 1.75 1.75 0 0 1 3.5 0ZM19.25 15.25h-4v-6.5h1a3 3 0 0 1 3 3v3.5Z" stroke="#111" stroke-width="1.5" stroke-linecap="round" stroke-linejoin="round"/>
</g></symbol><symbol id="Union"><g fill="none">
    <path fill-rule="evenodd" clip-rule="evenodd" d="M1615 0H245v1.08h20.881V598h11.52V1.08H1615V0ZM1.98 126H.54L23.04.18H27L54.9 126H43.2l-8.82-39.24H9L1.98 126ZM20.7 21.42h-.36l-1.26 7.02-9.9 57.24h24.84L22.14 28.44l-1.44-7.02ZM115.786 126V.18h11.52v62.46h29.88V.18h11.52V126h-11.52V63.72h-29.88V126h-11.52ZM197.208.18V126h38.7v-1.08h-27.18V62.28h23.4V61.2h-23.4V1.26h27.18V.18h-38.7ZM638.137 577.4c-.8-4.666-.733-9.8.2-15.4l12.2-69c.934-5.466 2.6-10.4 5-14.8 2.534-4.533 5.534-8.4 9-11.6a39.39 39.39 0 0 1 12.2-7.4c4.534-1.866 9.334-2.8 14.4-2.8 4.934 0 9.334.934 13.2 2.8 3.867 1.734 7 4.2 9.4 7.4 2.4 3.2 4 7.067 4.8 11.6.934 4.4.867 9.334-.2 14.8l-12.2 69c-.8 5.6-2.466 10.734-5 15.4-2.533 4.534-5.6 8.534-9.2 12-3.466 3.334-7.466 5.867-12 7.6-4.4 1.734-9.2 2.6-14.4 2.6-5.066 0-9.533-.866-13.4-2.6-3.733-1.866-6.8-4.4-9.2-7.6-2.4-3.333-4-7.333-4.8-12Zm35.4-106.4c-1.2 2.934-2.133 6.267-2.8 10l-16.6 94.2c-.666 3.734-.933 7.134-.8 10.2.267 2.934.867 5.4 1.8 7.4.934 1.867 2.267 3.267 4 4.2 1.867.934 4.134 1.4 6.8 1.4 2.667 0 5-.466 7-1.4 2.134-.933 4.067-2.4 5.8-4.4 1.734-2 3.134-4.4 4.2-7.2 1.2-2.933 2.134-6.333 2.8-10.2l16.8-94.2c.667-3.866.934-7.266.8-10.2-.133-2.933-.733-5.333-1.8-7.2-.933-2-2.333-3.466-4.2-4.4-1.733-1.066-3.866-1.6-6.4-1.6-2.666 0-5.066.534-7.2 1.6-2.133.934-4.066 2.4-5.8 4.4-1.6 2-3.066 4.467-4.4 7.4ZM564.8 598h-18l24.8-139.8H638L613.2 598H595l24.6-138.6h-30.2L564.8 598Zm222.512 0-12.4-58.4c-.666-3.2-1.533-5.8-2.6-7.8-.933-2.133-2.066-3.8-3.4-5-1.333-1.2-2.866-2-4.6-2.4-1.733-.4-3.6-.6-5.6-.6h-2.016l45.016-65.6h-2l-44.771 65.6h-6.572l11.543-65.6h-18l-24.8 139.8h18.2l12.846-73h.754c2 .134 3.534.867 4.6 2.2 1.067 1.334 1.934 3.867 2.6 7.6l12.4 63.2h18.8Zm8.886 0h-1.6l51.6-139.8h5.2l9.2 139.8h-18.6l-3-43.6h-26.8l-16 43.6Zm39.4-106.8h-.4l-3 8-19.4 54h26.2l-2.8-54-.6-8Zm61.728 108.4c6.134 0 11.867-.8 17.2-2.4 5.467-1.6 10.267-3.866 14.4-6.8a40.08 40.08 0 0 0 10.4-10.8c2.8-4.4 4.667-9.333 5.6-14.8l1.6-9c.8-4.533.867-8.533.2-12-.666-3.466-2-6.4-4-8.8-2-2.533-4.6-4.533-7.8-6-3.066-1.466-6.733-2.333-11-2.6l-4.2-.4.2-.8 4.4-.2c4-.266 7.667-1.066 11-2.4 3.467-1.466 6.467-3.333 9-5.6 2.667-2.4 4.867-5.333 6.6-8.8 1.867-3.6 3.2-7.6 4-12l1.2-7.2c.934-5.066.867-9.6-.2-13.6-1.066-4-3-7.4-5.8-10.2-2.8-2.8-6.333-4.933-10.6-6.4-4.266-1.6-9.133-2.4-14.6-2.4-6.266 0-12.333 1-18.2 3-5.866 2-10.933 4.867-15.2 8.6l.8.8a41.975 41.975 0 0 1 12.4-7.4c4.667-1.733 9.134-2.6 13.4-2.6 7.6 0 13.267 2.667 17 8 3.734 5.2 4.8 12.534 3.2 22l-1.6 8.4c-1.6 9.2-4.733 16.134-9.4 20.8-4.666 4.667-10.4 7-17.2 7h-4.6l-.2 1.2h4.6c3.734 0 6.934.6 9.6 1.8 2.8 1.2 5 3 6.6 5.4 1.734 2.267 2.8 5.134 3.2 8.6.4 3.467.267 7.467-.4 12l-2.2 11.6c-1.733 10.134-5.866 18-12.4 23.6-6.4 5.467-14.066 8.2-23 8.2-4.133 0-8.266-.6-12.4-1.8-4-1.2-7.933-3-11.8-5.4l-.8 1c4.134 2.8 8.867 4.934 14.2 6.4 5.334 1.334 10.934 2 16.8 2Zm47.896-1.6h-1.6l51.6-139.8h5.198l9.2 139.8h-18.598l-3-43.6h-26.8l-16 43.6Zm39.4-106.8h-.4l-3 8-19.4 54h26.2l-2.8-54-.6-8Zm25.808 104.6c2 1.334 4.13 2.267 6.4 2.8 2.26.667 4.66 1 7.2 1 3.73 0 7.33-.866 10.8-2.6 3.46-1.733 6.66-4.4 9.6-8 2.93-3.733 5.6-8.4 8-14 2.53-5.733 4.6-12.533 6.2-20.4l20.4-95.2h29.4l-24.4 138.6h18l24.6-139.8h-65.4l-23 109.2c-1.2 6-2.47 10.934-3.8 14.8-1.34 3.734-2.74 6.8-4.2 9.2-1.34 2.267-2.8 3.867-4.4 4.8-1.6.934-3.27 1.4-5 1.4-1.74 0-3.34-.2-4.8-.6-1.6-.533-3.2-1.333-4.8-2.4l-.8 1.2ZM1127 577.4c-.8-4.666-.73-9.8.2-15.4l12.2-69c.94-5.466 2.6-10.4 5-14.8 2.54-4.533 5.54-8.4 9-11.6 3.6-3.2 7.67-5.666 12.2-7.4 4.54-1.866 9.34-2.8 14.4-2.8 4.94 0 9.34.934 13.2 2.8 3.87 1.734 7 4.2 9.4 7.4 2.4 3.2 4 7.067 4.8 11.6.94 4.4.87 9.334-.2 14.8l-12.2 69c-.8 5.6-2.46 10.734-5 15.4-2.53 4.534-5.6 8.534-9.2 12-3.46 3.334-7.46 5.867-12 7.6-4.4 1.734-9.2 2.6-14.4 2.6-5.06 0-9.53-.866-13.4-2.6-3.73-1.866-6.8-4.4-9.2-7.6-2.4-3.333-4-7.333-4.8-12Zm35.4-106.4c-1.2 2.934-2.13 6.267-2.8 10l-16.6 94.2c-.66 3.734-.93 7.134-.8 10.2.27 2.934.87 5.4 1.8 7.4.94 1.867 2.27 3.267 4 4.2 1.87.934 4.14 1.4 6.8 1.4 2.67 0 5-.466 7-1.4 2.14-.933 4.07-2.4 5.8-4.4 1.74-2 3.14-4.4 4.2-7.2 1.2-2.933 2.14-6.333 2.8-10.2l16.8-94.2c.67-3.866.94-7.266.8-10.2-.13-2.933-.73-5.333-1.8-7.2-.93-2-2.33-3.466-4.2-4.4-1.73-1.066-3.86-1.6-6.4-1.6-2.66 0-5.06.534-7.2 1.6-2.13.934-4.06 2.4-5.8 4.4-1.6 2-3.06 4.467-4.4 7.4Zm50.35 90.8c-.93 5.734-1.07 10.934-.4 15.6.8 4.667 2.4 8.667 4.8 12 2.4 3.334 5.53 5.867 9.4 7.6 3.87 1.734 8.33 2.6 13.4 2.6 7.33 0 13.93-1.666 19.8-5 6-3.466 10.87-8.333 14.6-14.6l-1.2-.6a31.098 31.098 0 0 1-5.6 7.6 33.363 33.363 0 0 1-7.2 5.8 38.324 38.324 0 0 1-8.6 3.8c-3.07.934-6.13 1.4-9.2 1.4-6.13 0-10.33-1.933-12.6-5.8-2.27-3.866-2.67-10.066-1.2-18.6l16.4-92c1.33-7.6 3.93-13.4 7.8-17.4 4-4 9.07-6 15.2-6 4.27 0 8.07.867 11.4 2.6 3.47 1.734 6.4 4.267 8.8 7.6l1-.8c-2.8-3.733-6.2-6.533-10.2-8.4-4-1.866-8.6-2.8-13.8-2.8-5.2 0-10.07.934-14.6 2.8-4.4 1.734-8.4 4.2-12 7.4-3.47 3.2-6.4 7.067-8.8 11.6-2.4 4.534-4.07 9.534-5 15l-12.2 68.6Zm93.42-103.6h18l-10.8 61.2h13c4.67 0 8.8.867 12.4 2.6 3.73 1.6 6.8 3.934 9.2 7 2.4 2.934 4.07 6.467 5 10.6 1.07 4 1.13 8.4.2 13.2l-2.2 12.6c-.8 4.534-2.33 8.8-4.6 12.8-2.27 3.867-5 7.267-8.2 10.2a38.535 38.535 0 0 1-10.8 7c-3.87 1.734-7.87 2.6-12 2.6h-34l24.8-139.8Zm22.8 124.8c1.2-3.2 2.2-7.133 3-11.8l4.2-24.4c1.6-8.666 1.33-15.2-.8-19.6-2-4.4-5.47-6.6-10.4-6.6h-11.8l-13.6 76.2h12.8c2.67 0 5-.466 7-1.4 2-.933 3.8-2.4 5.4-4.4 1.6-2.133 3-4.8 4.2-8Z" fill="#111"/>
</g></symbol></svg>